<svg xmlns="http://www.w3.org/2000/svg" xmlns:xlink="http://www.w3.org/1999/xlink" width="1622pt" height="530pt" viewBox="0.00 0.00 1622.00 530.00">
<g id="graph0" class="graph" transform="scale(1 1) rotate(0) translate(4 526)">
<title>LiquidWars</title>
<polygon fill="white" stroke="none" points="-4,4 -4,-526 1618.39,-526 1618.39,4 -4,4"/>
<g id="clust1" class="cluster">
<title>cluster_core</title>
<path fill="none" stroke="#999999" d="M20,-281C20,-281 461.34,-281 461.34,-281 467.34,-281 473.34,-287 473.34,-293 473.34,-293 473.34,-368 473.34,-368 473.34,-374 467.34,-380 461.34,-380 461.34,-380 20,-380 20,-380 14,-380 8,-374 8,-368 8,-368 8,-293 8,-293 8,-287 14,-281 20,-281"/>
<text xml:space="preserve" text-anchor="middle" x="240.67" y="-365.2" font-family="Helvetica,sans-Serif" font-size="12.00">liquidwars (bootstrap / resources)</text>
</g>
<g id="clust2" class="cluster">
<title>cluster_ui</title>
<path fill="none" stroke="#009acd" d="M330.77,-99C330.77,-99 761.92,-99 761.92,-99 767.92,-99 773.92,-105 773.92,-111 773.92,-111 773.92,-261 773.92,-261 773.92,-267 767.92,-273 761.92,-273 761.92,-273 330.77,-273 330.77,-273 324.77,-273 318.77,-267 318.77,-261 318.77,-261 318.77,-111 318.77,-111 318.77,-105 324.77,-99 330.77,-99"/>
<text xml:space="preserve" text-anchor="middle" x="546.35" y="-258.2" font-family="Helvetica,sans-Serif" font-size="12.00">liquidwars.ui (Swing UI)</text>
</g>
<g id="clust3" class="cluster">
<title>cluster_ai</title>
<path fill="none" stroke="#698b69" d="M22.73,-428C22.73,-428 468.07,-428 468.07,-428 474.07,-428 480.07,-434 480.07,-440 480.07,-440 480.07,-502 480.07,-502 480.07,-508 474.07,-514 468.07,-514 468.07,-514 22.73,-514 22.73,-514 16.73,-514 10.73,-508 10.73,-502 10.73,-502 10.73,-440 10.73,-440 10.73,-434 16.73,-428 22.73,-428"/>
<text xml:space="preserve" text-anchor="middle" x="245.4" y="-499.2" font-family="Helvetica,sans-Serif" font-size="12.00">liquidwars.ai (AI)</text>
</g>
<g id="clust4" class="cluster">
<title>cluster_algo</title>
<path fill="none" stroke="#cd9b1d" d="M955.96,-266C955.96,-266 1099.69,-266 1099.69,-266 1105.69,-266 1111.69,-272 1111.69,-278 1111.69,-278 1111.69,-406 1111.69,-406 1111.69,-412 1105.69,-418 1099.69,-418 1099.69,-418 955.96,-418 955.96,-418 949.96,-418 943.96,-412 943.96,-406 943.96,-406 943.96,-278 943.96,-278 943.96,-272 949.96,-266 955.96,-266"/>
<text xml:space="preserve" text-anchor="middle" x="1027.83" y="-403.2" font-family="Helvetica,sans-Serif" font-size="12.00">liquidwars.algo (gradients)</text>
</g>
<g id="clust5" class="cluster">
<title>cluster_sim</title>
<path fill="none" stroke="#8b4789" d="M961.98,-172C961.98,-172 1094.68,-172 1094.68,-172 1100.68,-172 1106.68,-178 1106.68,-184 1106.68,-184 1106.68,-246 1106.68,-246 1106.68,-252 1100.68,-258 1094.68,-258 1094.68,-258 961.98,-258 961.98,-258 955.98,-258 949.98,-252 949.98,-246 949.98,-246 949.98,-184 949.98,-184 949.98,-178 955.98,-172 961.98,-172"/>
<text xml:space="preserve" text-anchor="middle" x="1028.33" y="-243.2" font-family="Helvetica,sans-Serif" font-size="12.00">liquidwars.sim (simulation)</text>
</g>
<g id="clust6" class="cluster">
<title>cluster_model</title>
<path fill="none" stroke="#666666" d="M1251.04,-106C1251.04,-106 1594.39,-106 1594.39,-106 1600.39,-106 1606.39,-112 1606.39,-118 1606.39,-118 1606.39,-180 1606.39,-180 1606.39,-186 1600.39,-192 1594.39,-192 1594.39,-192 1251.04,-192 1251.04,-192 1245.04,-192 1239.04,-186 1239.04,-180 1239.04,-180 1239.04,-118 1239.04,-118 1239.04,-112 1245.04,-106 1251.04,-106"/>
<text xml:space="preserve" text-anchor="middle" x="1422.72" y="-177.2" font-family="Helvetica,sans-Serif" font-size="12.00">liquidwars.model (state)</text>
</g>
<!-- WallsStable -->
<g id="node1" class="node">
<title>WallsStable</title>
<polygon fill="none" stroke="black" points="725.7,-376.8 653.32,-376.8 653.32,-329.2 731.7,-329.2 731.7,-370.8 725.7,-376.8"/>
<polyline fill="none" stroke="black" points="725.7,-376.8 725.7,-370.8"/>
<polyline fill="none" stroke="black" points="731.7,-370.8 725.7,-370.8"/>
<text xml:space="preserve" text-anchor="middle" x="692.51" y="-362.9" font-family="Helvetica,sans-Serif" font-size="11.00">wallsStable</text>
<text xml:space="preserve" text-anchor="middle" x="692.51" y="-349.7" font-family="Helvetica,sans-Serif" font-size="11.00">boolean[y][x]</text>
<text xml:space="preserve" text-anchor="middle" x="692.51" y="-336.5" font-family="Helvetica,sans-Serif" font-size="11.00">(obstacles)</text>
</g>
<!-- GameController -->
<g id="node6" class="node">
<title>GameController</title>
<polygon fill="none" stroke="black" points="740.4,-242.8 644.62,-242.8 644.62,-195.2 740.4,-195.2 740.4,-242.8"/>
<text xml:space="preserve" text-anchor="middle" x="692.51" y="-228.9" font-family="Helvetica,sans-Serif" font-size="11.00">GameController</text>
<text xml:space="preserve" text-anchor="middle" x="692.51" y="-215.7" font-family="Helvetica,sans-Serif" font-size="11.00">(world + targets)</text>
<text xml:space="preserve" text-anchor="middle" x="692.51" y="-202.5" font-family="Helvetica,sans-Serif" font-size="11.00">tick()</text>
</g>
<!-- WallsStable&#45;&gt;GameController -->
<g id="edge7" class="edge">
<title>WallsStable-&gt;GameController</title>
<path fill="none" stroke="black" d="M692.51,-328.91C692.51,-308.19 692.51,-278.02 692.51,-254.52"/>
<polygon fill="black" stroke="black" points="696.01,-254.78 692.51,-244.78 689.01,-254.78 696.01,-254.78"/>
<text xml:space="preserve" text-anchor="middle" x="683.51" y="-283" font-family="Helvetica,sans-Serif" font-size="10.00">used for clamp + ignore wall clicks</text>
</g>
<!-- GradientComputer -->
<g id="node10" class="node">
<title>GradientComputer</title>
<polygon fill="none" stroke="black" points="1103.69,-387.8 951.96,-387.8 951.96,-340.2 1103.69,-340.2 1103.69,-387.8"/>
<text xml:space="preserve" text-anchor="middle" x="1027.83" y="-373.9" font-family="Helvetica,sans-Serif" font-size="11.00">GradientComputer</text>
<text xml:space="preserve" text-anchor="middle" x="1027.83" y="-360.7" font-family="Helvetica,sans-Serif" font-size="11.00">BFS 4-neighbours</text>
<text xml:space="preserve" text-anchor="middle" x="1027.83" y="-347.5" font-family="Helvetica,sans-Serif" font-size="11.00">compute(obstacles, targets)</text>
</g>
<!-- WallsStable&#45;&gt;GradientComputer -->
<g id="edge8" class="edge">
<title>WallsStable-&gt;GradientComputer</title>
<path fill="none" stroke="black" d="M732.07,-354.27C782.61,-355.94 872.74,-358.91 940.07,-361.14"/>
<polygon fill="black" stroke="black" points="939.89,-364.63 950,-361.46 940.12,-357.64 939.89,-364.63"/>
<text xml:space="preserve" text-anchor="middle" x="858.94" y="-363.75" font-family="Helvetica,sans-Serif" font-size="10.00">obstacles input</text>
</g>
<!-- MeshGradientComputer -->
<g id="node11" class="node">
<title>MeshGradientComputer</title>
<polygon fill="none" stroke="black" points="1094.52,-321.8 961.14,-321.8 961.14,-274.2 1094.52,-274.2 1094.52,-321.8"/>
<text xml:space="preserve" text-anchor="middle" x="1027.83" y="-307.9" font-family="Helvetica,sans-Serif" font-size="11.00">MeshGradientComputer</text>
<text xml:space="preserve" text-anchor="middle" x="1027.83" y="-294.7" font-family="Helvetica,sans-Serif" font-size="11.00">Dijkstra 8-neighbours</text>
<text xml:space="preserve" text-anchor="middle" x="1027.83" y="-281.5" font-family="Helvetica,sans-Serif" font-size="11.00">(optional / not wired)</text>
</g>
<!-- WallsStable&#45;&gt;MeshGradientComputer -->
<g id="edge9" class="edge">
<title>WallsStable-&gt;MeshGradientComputer</title>
<path fill="none" stroke="black" stroke-dasharray="5,2" d="M732.07,-346.64C785.07,-337.89 881.6,-321.96 949.72,-310.72"/>
<polygon fill="black" stroke="black" points="950.03,-314.22 959.33,-309.14 948.89,-307.31 950.03,-314.22"/>
<text xml:space="preserve" text-anchor="middle" x="858.94" y="-339.75" font-family="Helvetica,sans-Serif" font-size="10.00">obstacles input</text>
</g>
<!-- World -->
<g id="node13" class="node">
<title>World</title>
<polygon fill="none" stroke="black" points="1354.74,-161.8 1247.04,-161.8 1247.04,-114.2 1354.74,-114.2 1354.74,-161.8"/>
<text xml:space="preserve" text-anchor="middle" x="1300.89" y="-147.9" font-family="Helvetica,sans-Serif" font-size="11.00">World</text>
<text xml:space="preserve" text-anchor="middle" x="1300.89" y="-134.7" font-family="Helvetica,sans-Serif" font-size="11.00">(walls + particles)</text>
<text xml:space="preserve" text-anchor="middle" x="1300.89" y="-121.5" font-family="Helvetica,sans-Serif" font-size="11.00">get/set/isWall/copy</text>
</g>
<!-- WallsStable&#45;&gt;World -->
<g id="edge6" class="edge">
<title>WallsStable-&gt;World</title>
<path fill="none" stroke="black" d="M731.96,-375.6C810.14,-418.29 990.49,-499.83 1111.69,-422 1164.13,-388.33 1183.33,-210.09 1228.35,-167 1231.01,-164.45 1233.93,-162.12 1237.01,-159.98"/>
<polygon fill="black" stroke="black" points="1238.64,-163.08 1245.39,-154.92 1235.02,-157.09 1238.64,-163.08"/>
<text xml:space="preserve" text-anchor="middle" x="1027.83" y="-457.36" font-family="Helvetica,sans-Serif" font-size="10.00">stored as walls</text>
</g>
<!-- App -->
<g id="node2" class="node">
<title>App</title>
<polygon fill="none" stroke="black" points="129.2,-349.4 16,-349.4 16,-288.6 129.2,-288.6 129.2,-349.4"/>
<text xml:space="preserve" text-anchor="middle" x="72.6" y="-335.5" font-family="Helvetica,sans-Serif" font-size="11.00">App</text>
<text xml:space="preserve" text-anchor="middle" x="72.6" y="-322.3" font-family="Helvetica,sans-Serif" font-size="11.00">(main)</text>
<text xml:space="preserve" text-anchor="middle" x="72.6" y="-309.1" font-family="Helvetica,sans-Serif" font-size="11.00">showHomeScreen()</text>
<text xml:space="preserve" text-anchor="middle" x="72.6" y="-295.9" font-family="Helvetica,sans-Serif" font-size="11.00">startGame()</text>
</g>
<!-- LevelLoader -->
<g id="node3" class="node">
<title>LevelLoader</title>
<polygon fill="none" stroke="black" points="465.34,-350 312.42,-350 312.42,-314 465.34,-314 465.34,-350"/>
<text xml:space="preserve" text-anchor="middle" x="388.88" y="-335.3" font-family="Helvetica,sans-Serif" font-size="11.00">LevelLoader</text>
<text xml:space="preserve" text-anchor="middle" x="388.88" y="-322.1" font-family="Helvetica,sans-Serif" font-size="11.00">loadWallsFromResource(...)</text>
</g>
<!-- App&#45;&gt;LevelLoader -->
<g id="edge4" class="edge">
<title>App-&gt;LevelLoader</title>
<path fill="none" stroke="black" d="M129.43,-321.31C176.85,-323.27 245.74,-326.12 300.48,-328.38"/>
<polygon fill="black" stroke="black" points="300.28,-331.88 310.41,-328.8 300.57,-324.89 300.28,-331.88"/>
<text xml:space="preserve" text-anchor="middle" x="215.56" y="-330.42" font-family="Helvetica,sans-Serif" font-size="10.00">loads level walls</text>
</g>
<!-- HomeScreen -->
<g id="node4" class="node">
<title>HomeScreen</title>
<polygon fill="none" stroke="black" points="450.99,-243 326.77,-243 326.77,-207 450.99,-207 450.99,-243"/>
<text xml:space="preserve" text-anchor="middle" x="388.88" y="-228.3" font-family="Helvetica,sans-Serif" font-size="11.00">HomeScreen (JPanel)</text>
<text xml:space="preserve" text-anchor="middle" x="388.88" y="-215.1" font-family="Helvetica,sans-Serif" font-size="11.00">Play / Exit / Toggle AI</text>
</g>
<!-- App&#45;&gt;HomeScreen -->
<g id="edge1" class="edge">
<title>App-&gt;HomeScreen</title>
<path fill="none" stroke="black" d="M82.62,-288.3C92.98,-259.2 113.12,-217.16 147.2,-198 205.88,-165.01 285.31,-183.85 336.57,-202.59"/>
<polygon fill="black" stroke="black" points="335.06,-205.76 345.65,-206.03 337.54,-199.21 335.06,-205.76"/>
<text xml:space="preserve" text-anchor="middle" x="215.56" y="-201" font-family="Helvetica,sans-Serif" font-size="10.00">shows home screen</text>
</g>
<!-- GamePanel -->
<g id="node5" class="node">
<title>GamePanel</title>
<polygon fill="none" stroke="black" points="447.93,-159.8 329.83,-159.8 329.83,-112.2 447.93,-112.2 447.93,-159.8"/>
<text xml:space="preserve" text-anchor="middle" x="388.88" y="-145.9" font-family="Helvetica,sans-Serif" font-size="11.00">GamePanel (JPanel)</text>
<text xml:space="preserve" text-anchor="middle" x="388.88" y="-132.7" font-family="Helvetica,sans-Serif" font-size="11.00">Timer loop @33ms</text>
<text xml:space="preserve" text-anchor="middle" x="388.88" y="-119.5" font-family="Helvetica,sans-Serif" font-size="11.00">render + input</text>
</g>
<!-- App&#45;&gt;GamePanel -->
<g id="edge14" class="edge">
<title>App-&gt;GamePanel</title>
<path fill="none" stroke="black" d="M77.52,-288.31C84.27,-249.41 102.05,-183.63 147.2,-152 196.47,-117.49 266.22,-116.67 317.96,-122.6"/>
<polygon fill="black" stroke="black" points="317.51,-126.07 327.87,-123.86 318.39,-119.12 317.51,-126.07"/>
<text xml:space="preserve" text-anchor="middle" x="215.56" y="-167" font-family="Helvetica,sans-Serif" font-size="10.00">new GamePanel(controller, ...)</text>
<text xml:space="preserve" text-anchor="middle" x="215.56" y="-155" font-family="Helvetica,sans-Serif" font-size="10.00">(aiEnabled)</text>
</g>
<!-- App&#45;&gt;GameController -->
<g id="edge12" class="edge">
<title>App-&gt;GameController</title>
<path fill="none" stroke="black" d="M129.28,-312.96C245.83,-300.09 512.08,-269.48 601.1,-249 611.62,-246.58 622.66,-243.44 633.27,-240.11"/>
<polygon fill="black" stroke="black" points="634.25,-243.47 642.69,-237.05 632.09,-236.81 634.25,-243.47"/>
<text xml:space="preserve" text-anchor="middle" x="388.88" y="-295.99" font-family="Helvetica,sans-Serif" font-size="10.00">new GameController(world, walls, w, h)</text>
</g>
<!-- OpponentAI -->
<g id="node8" class="node">
<title>OpponentAI</title>
<polygon fill="none" stroke="black" points="472.07,-484 305.69,-484 305.69,-448 472.07,-448 472.07,-484"/>
<text xml:space="preserve" text-anchor="middle" x="388.88" y="-469.3" font-family="Helvetica,sans-Serif" font-size="11.00">OpponentAI</text>
<text xml:space="preserve" text-anchor="middle" x="388.88" y="-456.1" font-family="Helvetica,sans-Serif" font-size="11.00">nextTarget(playerTx, playerTy)</text>
</g>
<!-- App&#45;&gt;OpponentAI -->
<g id="edge25" class="edge">
<title>App-&gt;OpponentAI</title>
<path fill="none" stroke="black" d="M129.54,-349.35C175.26,-373.63 241.91,-407.82 301.91,-434 309.34,-437.24 317.21,-440.46 325.05,-443.53"/>
<polygon fill="black" stroke="black" points="323.68,-446.76 334.27,-447.08 326.2,-440.22 323.68,-446.76"/>
<text xml:space="preserve" text-anchor="middle" x="215.56" y="-428.58" font-family="Helvetica,sans-Serif" font-size="10.00">new OpponentAI(wallsStable)</text>
</g>
<!-- OpponentManager -->
<g id="node9" class="node">
<title>OpponentManager</title>
<polygon fill="none" stroke="black" points="126.47,-483.8 18.73,-483.8 18.73,-436.2 126.47,-436.2 126.47,-483.8"/>
<text xml:space="preserve" text-anchor="middle" x="72.6" y="-469.9" font-family="Helvetica,sans-Serif" font-size="11.00">OpponentManager</text>
<text xml:space="preserve" text-anchor="middle" x="72.6" y="-456.7" font-family="Helvetica,sans-Serif" font-size="11.00">Swing Timer</text>
<text xml:space="preserve" text-anchor="middle" x="72.6" y="-443.5" font-family="Helvetica,sans-Serif" font-size="11.00">updateOnce()</text>
</g>
<!-- App&#45;&gt;OpponentManager -->
<g id="edge26" class="edge">
<title>App-&gt;OpponentManager</title>
<path fill="none" stroke="black" d="M72.6,-349.59C72.6,-371.67 72.6,-401.52 72.6,-424.62"/>
<polygon fill="black" stroke="black" points="69.1,-424.49 72.6,-434.49 76.1,-424.49 69.1,-424.49"/>
<text xml:space="preserve" text-anchor="middle" x="57.6" y="-395.8" font-family="Helvetica,sans-Serif" font-size="10.00">new OpponentManager(controller, ai)</text>
<text xml:space="preserve" text-anchor="middle" x="57.6" y="-383.8" font-family="Helvetica,sans-Serif" font-size="10.00">start()</text>
</g>
<!-- App&#45;&gt;World -->
<g id="edge10" class="edge">
<title>App-&gt;World</title>
<path fill="none" stroke="black" d="M77.42,-288.1C84.26,-244.76 102.34,-165.65 147.2,-116 226.81,-27.89 269.14,0 387.88,0 387.88,0 387.88,0 1028.83,0 1122.29,0 1216.08,-65.96 1265.07,-106.67"/>
<polygon fill="black" stroke="black" points="1262.64,-109.2 1272.53,-112.98 1267.16,-103.85 1262.64,-109.2"/>
<text xml:space="preserve" text-anchor="middle" x="692.51" y="-15" font-family="Helvetica,sans-Serif" font-size="10.00">creates initial World</text>
<text xml:space="preserve" text-anchor="middle" x="692.51" y="-3" font-family="Helvetica,sans-Serif" font-size="10.00">(walls + Particle[][])</text>
</g>
<!-- LevelLoader&#45;&gt;WallsStable -->
<g id="edge5" class="edge">
<title>LevelLoader-&gt;WallsStable</title>
<path fill="none" stroke="black" d="M465.6,-337.27C520.74,-341.11 593.85,-346.2 641.76,-349.54"/>
<polygon fill="black" stroke="black" points="641.34,-353.02 651.56,-350.22 641.83,-346.03 641.34,-353.02"/>
<text xml:space="preserve" text-anchor="middle" x="547.47" y="-349.21" font-family="Helvetica,sans-Serif" font-size="10.00">produces obstacles grid</text>
</g>
<!-- HomeScreen&#45;&gt;App -->
<g id="edge2" class="edge">
<title>HomeScreen-&gt;App</title>
<path fill="none" stroke="black" d="M326.31,-213.88C275.67,-207.73 203.34,-206.01 147.2,-233 126.58,-242.91 109.49,-261.6 96.99,-279.03"/>
<polygon fill="black" stroke="black" points="94.11,-277.03 91.37,-287.27 99.89,-280.98 94.11,-277.03"/>
<text xml:space="preserve" text-anchor="middle" x="215.56" y="-248" font-family="Helvetica,sans-Serif" font-size="10.00">Play click:</text>
<text xml:space="preserve" text-anchor="middle" x="215.56" y="-236" font-family="Helvetica,sans-Serif" font-size="10.00">startGame(aiEnabled)</text>
</g>
<!-- HomeScreen&#45;&gt;LevelLoader -->
<g id="edge3" class="edge">
<title>HomeScreen-&gt;LevelLoader</title>
<path fill="none" stroke="black" d="M326.62,-217.66C282.14,-216.25 224.77,-223.04 193.15,-261 157.98,-303.23 233.62,-320.34 300.86,-327.28"/>
<polygon fill="black" stroke="black" points="300.19,-330.73 310.48,-328.2 300.86,-323.76 300.19,-330.73"/>
<text xml:space="preserve" text-anchor="middle" x="215.56" y="-264" font-family="Helvetica,sans-Serif" font-size="10.00">loads map background</text>
</g>
<!-- GamePanel&#45;&gt;GameController -->
<g id="edge15" class="edge">
<title>GamePanel-&gt;GameController</title>
<path fill="none" stroke="black" d="M434.36,-160.2C452.38,-169.15 473.68,-178.64 493.85,-185 539.49,-199.39 593.09,-208.13 632.96,-213.13"/>
<polygon fill="black" stroke="black" points="632.49,-216.6 642.83,-214.33 633.33,-209.65 632.49,-216.6"/>
<text xml:space="preserve" text-anchor="middle" x="547.47" y="-235.55" font-family="Helvetica,sans-Serif" font-size="10.00">Timer:</text>
<text xml:space="preserve" text-anchor="middle" x="547.47" y="-223.55" font-family="Helvetica,sans-Serif" font-size="10.00">controller.tick();</text>
<text xml:space="preserve" text-anchor="middle" x="547.47" y="-211.55" font-family="Helvetica,sans-Serif" font-size="10.00">repaint()</text>
</g>
<!-- GamePanel&#45;&gt;GameController -->
<g id="edge16" class="edge">
<title>GamePanel-&gt;GameController</title>
<path fill="none" stroke="black" d="M448.27,-138.56C500.87,-141.45 573.97,-147.09 601.1,-157 611.73,-160.88 631.99,-174.53 650.64,-188.04"/>
<polygon fill="black" stroke="black" points="648.55,-190.85 658.68,-193.93 652.68,-185.2 648.55,-190.85"/>
<text xml:space="preserve" text-anchor="middle" x="547.47" y="-172" font-family="Helvetica,sans-Serif" font-size="10.00">input:</text>
<text xml:space="preserve" text-anchor="middle" x="547.47" y="-160" font-family="Helvetica,sans-Serif" font-size="10.00">setTarget(team,x,y)</text>
</g>
<!-- ColourUtil -->
<g id="node7" class="node">
<title>ColourUtil</title>
<polygon fill="none" stroke="black" points="765.92,-156 619.1,-156 619.1,-120 765.92,-120 765.92,-156"/>
<text xml:space="preserve" text-anchor="middle" x="692.51" y="-141.3" font-family="Helvetica,sans-Serif" font-size="11.00">ColourUtil</text>
<text xml:space="preserve" text-anchor="middle" x="692.51" y="-128.1" font-family="Helvetica,sans-Serif" font-size="11.00">particleRGB(team, energy)</text>
</g>
<!-- GamePanel&#45;&gt;ColourUtil -->
<g id="edge19" class="edge">
<title>GamePanel-&gt;ColourUtil</title>
<path fill="none" stroke="black" d="M448.37,-129.38C463.19,-127.98 479.09,-126.71 493.85,-126 541.46,-123.72 553.53,-122.86 601.1,-126 603.29,-126.14 605.51,-126.31 607.75,-126.49"/>
<polygon fill="black" stroke="black" points="607.27,-129.96 617.54,-127.39 607.91,-122.99 607.27,-129.96"/>
<text xml:space="preserve" text-anchor="middle" x="547.47" y="-129" font-family="Helvetica,sans-Serif" font-size="10.00">ColourUtil.particleRGB()</text>
</g>
<!-- GamePanel&#45;&gt;World -->
<g id="edge17" class="edge">
<title>GamePanel-&gt;World</title>
<path fill="none" stroke="black" d="M448.33,-126.16C463.15,-123.89 479.06,-121.67 493.85,-120 549.31,-113.75 563.32,-113 619.1,-111 881.8,-101.57 948.3,-106.14 1210.35,-127 1218.51,-127.65 1227.06,-128.49 1235.52,-129.42"/>
<polygon fill="black" stroke="black" points="1235.1,-132.9 1245.43,-130.56 1235.9,-125.94 1235.1,-132.9"/>
<text xml:space="preserve" text-anchor="middle" x="858.94" y="-111.16" font-family="Helvetica,sans-Serif" font-size="10.00">renders from controller.getWorld()</text>
</g>
<!-- Particle -->
<g id="node14" class="node">
<title>Particle</title>
<polygon fill="none" stroke="black" points="1598.39,-161.8 1477.24,-161.8 1477.24,-114.2 1598.39,-114.2 1598.39,-161.8"/>
<text xml:space="preserve" text-anchor="middle" x="1537.82" y="-147.9" font-family="Helvetica,sans-Serif" font-size="11.00">Particle</text>
<text xml:space="preserve" text-anchor="middle" x="1537.82" y="-134.7" font-family="Helvetica,sans-Serif" font-size="11.00">(teamId, energy)</text>
<text xml:space="preserve" text-anchor="middle" x="1537.82" y="-121.5" font-family="Helvetica,sans-Serif" font-size="11.00">withTeam/withEnergy</text>
</g>
<!-- GamePanel&#45;&gt;Particle -->
<g id="edge18" class="edge">
<title>GamePanel-&gt;Particle</title>
<path fill="none" stroke="black" d="M443.12,-111.7C502.44,-86.9 601.82,-52 691.51,-52 691.51,-52 691.51,-52 1301.89,-52 1369.12,-52 1440.94,-83.44 1487.22,-108.3"/>
<polygon fill="black" stroke="black" points="1485.49,-111.35 1495.94,-113.09 1488.86,-105.21 1485.49,-111.35"/>
<text xml:space="preserve" text-anchor="middle" x="1027.83" y="-55" font-family="Helvetica,sans-Serif" font-size="10.00">reads teamId + energy</text>
</g>
<!-- GameController&#45;&gt;GradientComputer -->
<g id="edge20" class="edge">
<title>GameController-&gt;GradientComputer</title>
<path fill="none" stroke="black" d="M733.34,-243.29C748.7,-251.81 766.7,-260.79 783.92,-267 847.98,-290.09 883.69,-252.08 933.96,-298 945.28,-308.34 933.6,-319.71 943.96,-331 944.44,-331.52 944.92,-332.03 945.41,-332.53"/>
<polygon fill="black" stroke="black" points="943.07,-335.12 952.93,-338.99 947.63,-329.82 943.07,-335.12"/>
<text xml:space="preserve" text-anchor="middle" x="858.94" y="-301" font-family="Helvetica,sans-Serif" font-size="10.00">tick(): compute g0 + g1</text>
</g>
<!-- GameController&#45;&gt;MeshGradientComputer -->
<g id="edge24" class="edge">
<title>GameController-&gt;MeshGradientComputer</title>
<path fill="none" stroke="black" stroke-dasharray="5,2" d="M740.83,-218.52C801.75,-218.78 903.43,-222.43 933.96,-243 941.88,-248.33 936.97,-255.51 943.96,-262 946.34,-264.2 948.86,-266.28 951.5,-268.24"/>
<polygon fill="black" stroke="black" points="949.35,-271.01 959.61,-273.64 953.23,-265.19 949.35,-271.01"/>
<text xml:space="preserve" text-anchor="middle" x="858.94" y="-258" font-family="Helvetica,sans-Serif" font-size="10.00">(not used)</text>
<text xml:space="preserve" text-anchor="middle" x="858.94" y="-246" font-family="Helvetica,sans-Serif" font-size="10.00">possible upgrade</text>
</g>
<!-- StepSimulator -->
<g id="node12" class="node">
<title>StepSimulator</title>
<polygon fill="none" stroke="black" points="1092.69,-227.8 962.97,-227.8 962.97,-180.2 1092.69,-180.2 1092.69,-227.8"/>
<text xml:space="preserve" text-anchor="middle" x="1027.83" y="-213.9" font-family="Helvetica,sans-Serif" font-size="11.00">StepSimulator</text>
<text xml:space="preserve" text-anchor="middle" x="1027.83" y="-200.7" font-family="Helvetica,sans-Serif" font-size="11.00">step(current, gradients)</text>
<text xml:space="preserve" text-anchor="middle" x="1027.83" y="-187.5" font-family="Helvetica,sans-Serif" font-size="11.00">movement + combat</text>
</g>
<!-- GameController&#45;&gt;StepSimulator -->
<g id="edge21" class="edge">
<title>GameController-&gt;StepSimulator</title>
<path fill="none" stroke="black" d="M740.77,-210.98C754.63,-208.96 769.85,-207.06 783.92,-206 839.88,-201.77 903.31,-201.39 951.31,-202.01"/>
<polygon fill="black" stroke="black" points="950.98,-205.51 961.03,-202.16 951.08,-198.51 950.98,-205.51"/>
<text xml:space="preserve" text-anchor="middle" x="858.94" y="-209" font-family="Helvetica,sans-Serif" font-size="10.00">tick(): world = step(cur, gradients)</text>
</g>
<!-- GameController&#45;&gt;World -->
<g id="edge13" class="edge">
<title>GameController-&gt;World</title>
<path fill="none" stroke="black" d="M740.62,-200.65C790.31,-182.31 871.3,-155.27 943.96,-144 1044.98,-128.33 1164.04,-130.4 1235.66,-133.83"/>
<polygon fill="black" stroke="black" points="1235.06,-137.31 1245.23,-134.32 1235.42,-130.32 1235.06,-137.31"/>
<text xml:space="preserve" text-anchor="middle" x="1027.83" y="-159" font-family="Helvetica,sans-Serif" font-size="10.00">owns current world</text>
<text xml:space="preserve" text-anchor="middle" x="1027.83" y="-147" font-family="Helvetica,sans-Serif" font-size="10.00">(getWorld())</text>
</g>
<!-- OpponentAI&#45;&gt;WallsStable -->
<g id="edge29" class="edge">
<title>OpponentAI-&gt;WallsStable</title>
<path fill="none" stroke="black" d="M472.43,-456.31C512.54,-449.55 560.69,-438.34 601.1,-420 621.06,-410.94 640.89,-396.95 656.88,-384.09"/>
<polygon fill="black" stroke="black" points="658.69,-387.13 664.17,-378.06 654.23,-381.74 658.69,-387.13"/>
<text xml:space="preserve" text-anchor="middle" x="547.47" y="-467.28" font-family="Helvetica,sans-Serif" font-size="10.00">checks walls</text>
<text xml:space="preserve" text-anchor="middle" x="547.47" y="-455.28" font-family="Helvetica,sans-Serif" font-size="10.00">&amp; finds free cells</text>
</g>
<!-- OpponentManager&#45;&gt;GameController -->
<g id="edge27" class="edge">
<title>OpponentManager-&gt;GameController</title>
<path fill="none" stroke="black" d="M126.59,-449.21C172.82,-439.88 241.73,-426.16 301.91,-415 434.69,-390.37 495.49,-446.16 601.1,-362 616.98,-349.34 609.12,-337.69 619.1,-320 632.58,-296.1 650.53,-271.01 665.2,-251.83"/>
<polygon fill="black" stroke="black" points="667.82,-254.16 671.17,-244.11 662.28,-249.87 667.82,-254.16"/>
<text xml:space="preserve" text-anchor="middle" x="388.88" y="-430" font-family="Helvetica,sans-Serif" font-size="10.00">reads team0 target</text>
<text xml:space="preserve" text-anchor="middle" x="388.88" y="-418" font-family="Helvetica,sans-Serif" font-size="10.00">sets team1 target</text>
</g>
<!-- OpponentManager&#45;&gt;OpponentAI -->
<g id="edge28" class="edge">
<title>OpponentManager-&gt;OpponentAI</title>
<path fill="none" stroke="black" d="M126.91,-461.02C172.53,-461.89 239.27,-463.16 293.84,-464.2"/>
<polygon fill="black" stroke="black" points="293.71,-467.7 303.78,-464.39 293.85,-460.7 293.71,-467.7"/>
<text xml:space="preserve" text-anchor="middle" x="215.56" y="-466.89" font-family="Helvetica,sans-Serif" font-size="10.00">nextTarget(playerTx, playerTy)</text>
</g>
<!-- StepSimulator&#45;&gt;World -->
<g id="edge22" class="edge">
<title>StepSimulator-&gt;World</title>
<path fill="none" stroke="black" d="M1093.08,-183.88C1102.63,-181.1 1112.4,-178.39 1121.69,-176 1159.13,-166.38 1201.42,-157.29 1235.41,-150.41"/>
<polygon fill="black" stroke="black" points="1236,-153.86 1245.11,-148.46 1234.62,-147 1236,-153.86"/>
<text xml:space="preserve" text-anchor="middle" x="1166.02" y="-179" font-family="Helvetica,sans-Serif" font-size="10.00">copy + apply moves</text>
</g>
<!-- StepSimulator&#45;&gt;Particle -->
<g id="edge23" class="edge">
<title>StepSimulator-&gt;Particle</title>
<path fill="none" stroke="black" d="M1093.12,-198.58C1127.84,-195.6 1171.46,-191.74 1210.35,-188 1282.89,-181.02 1301.37,-181.87 1373.43,-171 1411.87,-165.2 1421.13,-161.7 1459.24,-154 1461.42,-153.56 1463.62,-153.11 1465.85,-152.66"/>
<polygon fill="black" stroke="black" points="1466.53,-156.09 1475.63,-150.67 1465.13,-149.24 1466.53,-156.09"/>
<text xml:space="preserve" text-anchor="middle" x="1300.89" y="-189.31" font-family="Helvetica,sans-Serif" font-size="10.00">move / convert / energy changes</text>
</g>
<!-- World&#45;&gt;Particle -->
<g id="edge11" class="edge">
<title>World-&gt;Particle</title>
<path fill="none" stroke="black" d="M1366.59,-138C1397.36,-138 1434.21,-138 1465.75,-138"/>
<polygon fill="black" stroke="black" points="1366.71,-134.5 1356.71,-138 1366.71,-141.5 1366.71,-134.5"/>
<polygon fill="black" stroke="black" points="1465.6,-141.5 1475.6,-138 1465.6,-134.5 1465.6,-141.5"/>
<text xml:space="preserve" text-anchor="middle" x="1425.34" y="-141" font-family="Helvetica,sans-Serif" font-size="10.00">contains grid of</text>
</g>
</g>
</svg>